<mxfile host="app.diagrams.net" modified="2024-06-21T14:17:30.958Z" agent="Mozilla/5.0 (Windows NT 10.0; WOW64) AppleWebKit/537.36 (KHTML, like Gecko) Chrome/86.0.4240.198 Safari/537.36" etag="uFZWoZMqT40y38OfN6dd" version="24.6.1" type="device">
  <diagram name="第 1 页" id="LF5KHh7pfJ0DQZTopZ8N">
    <mxGraphModel dx="1436" dy="736" grid="1" gridSize="10" guides="1" tooltips="1" connect="1" arrows="1" fold="1" page="1" pageScale="1" pageWidth="827" pageHeight="1169" math="0" shadow="0">
      <root>
        <mxCell id="0" />
        <mxCell id="1" parent="0" />
      </root>
    </mxGraphModel>
  </diagram>
</mxfile>
